<mxfile host="Electron" agent="Mozilla/5.0 (Windows NT 10.0; Win64; x64) AppleWebKit/537.36 (KHTML, like Gecko) draw.io/26.0.9 Chrome/128.0.6613.186 Electron/32.2.5 Safari/537.36" version="26.0.9">
  <diagram id="Ht1M8jgEwFfnCIfOTk4-" name="Page-1">
    <mxGraphModel dx="472" dy="820" grid="1" gridSize="10" guides="1" tooltips="1" connect="1" arrows="1" fold="1" page="1" pageScale="1" pageWidth="1169" pageHeight="827" math="0" shadow="0">
      <root>
        <mxCell id="0" />
        <mxCell id="1" parent="0" />
        <mxCell id="UEzPUAAOIrF-is8g5C7q-88" value="" style="edgeStyle=orthogonalEdgeStyle;rounded=0;orthogonalLoop=1;jettySize=auto;html=1;endArrow=open;endFill=0;strokeWidth=2;" parent="1" edge="1">
          <mxGeometry relative="1" as="geometry">
            <mxPoint x="168" y="179" as="sourcePoint" />
          </mxGeometry>
        </mxCell>
        <mxCell id="UEzPUAAOIrF-is8g5C7q-89" value="" style="edgeStyle=orthogonalEdgeStyle;rounded=0;orthogonalLoop=1;jettySize=auto;html=1;endArrow=open;endFill=0;strokeWidth=2;" parent="1" edge="1">
          <mxGeometry relative="1" as="geometry">
            <Array as="points">
              <mxPoint x="248" y="350" />
            </Array>
            <mxPoint x="247.52631578947376" y="218" as="sourcePoint" />
          </mxGeometry>
        </mxCell>
        <mxCell id="UEzPUAAOIrF-is8g5C7q-104" style="edgeStyle=orthogonalEdgeStyle;rounded=0;orthogonalLoop=1;jettySize=auto;html=1;endArrow=open;endFill=0;strokeWidth=2;" parent="1" edge="1">
          <mxGeometry relative="1" as="geometry">
            <mxPoint x="1057.5" y="218" as="sourcePoint" />
          </mxGeometry>
        </mxCell>
        <mxCell id="UEzPUAAOIrF-is8g5C7q-90" value="" style="edgeStyle=orthogonalEdgeStyle;rounded=0;orthogonalLoop=1;jettySize=auto;html=1;endArrow=open;endFill=0;strokeWidth=2;" parent="1" edge="1">
          <mxGeometry relative="1" as="geometry">
            <mxPoint x="480" y="349.0526315789473" as="targetPoint" />
          </mxGeometry>
        </mxCell>
        <mxCell id="UEzPUAAOIrF-is8g5C7q-91" value="" style="edgeStyle=orthogonalEdgeStyle;rounded=0;orthogonalLoop=1;jettySize=auto;html=1;endArrow=open;endFill=0;strokeWidth=2;" parent="1" edge="1">
          <mxGeometry relative="1" as="geometry">
            <mxPoint x="600" y="349" as="targetPoint" />
          </mxGeometry>
        </mxCell>
        <mxCell id="UEzPUAAOIrF-is8g5C7q-92" value="" style="edgeStyle=orthogonalEdgeStyle;rounded=0;orthogonalLoop=1;jettySize=auto;html=1;endArrow=open;endFill=0;strokeWidth=2;" parent="1" edge="1">
          <mxGeometry relative="1" as="geometry">
            <mxPoint x="723" y="349" as="targetPoint" />
          </mxGeometry>
        </mxCell>
        <mxCell id="UEzPUAAOIrF-is8g5C7q-101" value="" style="edgeStyle=orthogonalEdgeStyle;rounded=0;orthogonalLoop=1;jettySize=auto;html=1;endArrow=open;endFill=0;strokeWidth=2;" parent="1" edge="1">
          <mxGeometry relative="1" as="geometry">
            <mxPoint x="1018.5" y="349" as="sourcePoint" />
          </mxGeometry>
        </mxCell>
        <mxCell id="_5oGrvyWEHOWmhBWFbZB-9" value="Region 1" style="points=[[0,0],[0.25,0],[0.5,0],[0.75,0],[1,0],[1,0.25],[1,0.5],[1,0.75],[1,1],[0.75,1],[0.5,1],[0.25,1],[0,1],[0,0.75],[0,0.5],[0,0.25]];outlineConnect=0;gradientColor=none;html=1;whiteSpace=wrap;fontSize=12;fontStyle=0;container=1;pointerEvents=0;collapsible=0;recursiveResize=0;shape=mxgraph.aws4.group;grIcon=mxgraph.aws4.group_region;strokeColor=#00A4A6;fillColor=none;verticalAlign=top;align=left;spacingLeft=30;fontColor=#147EBA;dashed=1;" parent="1" vertex="1">
          <mxGeometry x="190" y="534" width="610" height="280" as="geometry" />
        </mxCell>
        <mxCell id="_5oGrvyWEHOWmhBWFbZB-32" value="Availability Zone" style="fillColor=none;strokeColor=#147EBA;dashed=1;verticalAlign=top;fontStyle=0;fontColor=#147EBA;whiteSpace=wrap;html=1;" parent="_5oGrvyWEHOWmhBWFbZB-9" vertex="1">
          <mxGeometry x="170" y="166.5" width="310" height="83.5" as="geometry" />
        </mxCell>
        <mxCell id="_5oGrvyWEHOWmhBWFbZB-31" value="Availability Zone" style="fillColor=none;strokeColor=#147EBA;dashed=1;verticalAlign=top;fontStyle=0;fontColor=#147EBA;whiteSpace=wrap;html=1;" parent="_5oGrvyWEHOWmhBWFbZB-9" vertex="1">
          <mxGeometry x="170" y="75.62" width="310" height="83.5" as="geometry" />
        </mxCell>
        <mxCell id="_5oGrvyWEHOWmhBWFbZB-30" value="Customer VPC" style="sketch=0;outlineConnect=0;html=1;whiteSpace=wrap;fontSize=12;fontStyle=0;shape=mxgraph.aws4.group;grIcon=mxgraph.aws4.group_vpc;strokeColor=#82b366;fillColor=none;verticalAlign=top;align=left;spacingLeft=30;dashed=0;" parent="_5oGrvyWEHOWmhBWFbZB-9" vertex="1">
          <mxGeometry x="150" y="38.25" width="350" height="221.75" as="geometry" />
        </mxCell>
        <mxCell id="_5oGrvyWEHOWmhBWFbZB-12" value="AWS VPC" style="sketch=0;outlineConnect=0;html=1;whiteSpace=wrap;fontSize=12;fontStyle=0;shape=mxgraph.aws4.group;grIcon=mxgraph.aws4.group_vpc;strokeColor=#82b366;fillColor=none;verticalAlign=top;align=left;spacingLeft=30;dashed=0;" parent="_5oGrvyWEHOWmhBWFbZB-9" vertex="1">
          <mxGeometry x="30" y="40" width="110" height="220" as="geometry" />
        </mxCell>
        <mxCell id="_5oGrvyWEHOWmhBWFbZB-15" value="" style="sketch=0;points=[[0,0,0],[0.25,0,0],[0.5,0,0],[0.75,0,0],[1,0,0],[0,1,0],[0.25,1,0],[0.5,1,0],[0.75,1,0],[1,1,0],[0,0.25,0],[0,0.5,0],[0,0.75,0],[1,0.25,0],[1,0.5,0],[1,0.75,0]];outlineConnect=0;fontColor=#232F3E;fillColor=#ED7100;strokeColor=#ffffff;dashed=0;verticalLabelPosition=bottom;verticalAlign=top;align=center;html=1;fontSize=12;fontStyle=0;aspect=fixed;shape=mxgraph.aws4.resourceIcon;resIcon=mxgraph.aws4.eks;" parent="_5oGrvyWEHOWmhBWFbZB-9" vertex="1">
          <mxGeometry x="65" y="135" width="40" height="40" as="geometry" />
        </mxCell>
        <mxCell id="_5oGrvyWEHOWmhBWFbZB-18" value="" style="sketch=0;outlineConnect=0;fontColor=#232F3E;gradientColor=none;fillColor=#8C4FFF;strokeColor=none;dashed=0;verticalLabelPosition=bottom;verticalAlign=top;align=center;html=1;fontSize=12;fontStyle=0;aspect=fixed;pointerEvents=1;shape=mxgraph.aws4.network_load_balancer;" parent="_5oGrvyWEHOWmhBWFbZB-9" vertex="1">
          <mxGeometry x="10" y="135" width="40" height="40" as="geometry" />
        </mxCell>
        <mxCell id="_5oGrvyWEHOWmhBWFbZB-43" style="edgeStyle=orthogonalEdgeStyle;rounded=0;orthogonalLoop=1;jettySize=auto;html=1;curved=1;fillColor=#fa6800;strokeColor=#C73500;" parent="_5oGrvyWEHOWmhBWFbZB-9" source="_5oGrvyWEHOWmhBWFbZB-33" target="_5oGrvyWEHOWmhBWFbZB-18" edge="1">
          <mxGeometry relative="1" as="geometry">
            <Array as="points">
              <mxPoint x="450" y="66" />
              <mxPoint x="30" y="66" />
            </Array>
          </mxGeometry>
        </mxCell>
        <mxCell id="_5oGrvyWEHOWmhBWFbZB-33" value="Node" style="sketch=0;points=[[0,0,0],[0.25,0,0],[0.5,0,0],[0.75,0,0],[1,0,0],[0,1,0],[0.25,1,0],[0.5,1,0],[0.75,1,0],[1,1,0],[0,0.25,0],[0,0.5,0],[0,0.75,0],[1,0.25,0],[1,0.5,0],[1,0.75,0]];outlineConnect=0;fontColor=#232F3E;fillColor=#ED7100;strokeColor=#ffffff;dashed=0;verticalLabelPosition=bottom;verticalAlign=top;align=center;html=1;fontSize=12;fontStyle=0;aspect=fixed;shape=mxgraph.aws4.resourceIcon;resIcon=mxgraph.aws4.ec2;" parent="_5oGrvyWEHOWmhBWFbZB-9" vertex="1">
          <mxGeometry x="430" y="95" width="40" height="40" as="geometry" />
        </mxCell>
        <mxCell id="_5oGrvyWEHOWmhBWFbZB-38" style="rounded=0;orthogonalLoop=1;jettySize=auto;html=1;startArrow=classicThin;startFill=1;endArrow=classicThin;endFill=1;fillColor=#fff2cc;strokeColor=#d6b656;gradientColor=#ffd966;" parent="_5oGrvyWEHOWmhBWFbZB-9" source="_5oGrvyWEHOWmhBWFbZB-36" target="_5oGrvyWEHOWmhBWFbZB-15" edge="1">
          <mxGeometry relative="1" as="geometry" />
        </mxCell>
        <mxCell id="_5oGrvyWEHOWmhBWFbZB-36" value="" style="sketch=0;outlineConnect=0;fontColor=#232F3E;gradientColor=none;fillColor=#8C4FFF;strokeColor=none;dashed=0;verticalLabelPosition=bottom;verticalAlign=top;align=center;html=1;fontSize=12;fontStyle=0;aspect=fixed;pointerEvents=1;shape=mxgraph.aws4.elastic_network_interface;" parent="_5oGrvyWEHOWmhBWFbZB-9" vertex="1">
          <mxGeometry x="180" y="97.37" width="40" height="40" as="geometry" />
        </mxCell>
        <mxCell id="_5oGrvyWEHOWmhBWFbZB-56" style="rounded=0;orthogonalLoop=1;jettySize=auto;html=1;startArrow=classic;startFill=1;fillColor=#d5e8d4;strokeColor=#82b366;" parent="_5oGrvyWEHOWmhBWFbZB-9" source="_5oGrvyWEHOWmhBWFbZB-45" target="_5oGrvyWEHOWmhBWFbZB-33" edge="1">
          <mxGeometry relative="1" as="geometry" />
        </mxCell>
        <mxCell id="_5oGrvyWEHOWmhBWFbZB-45" value="" style="sketch=0;outlineConnect=0;fontColor=#232F3E;gradientColor=none;fillColor=#8C4FFF;strokeColor=none;dashed=0;verticalLabelPosition=bottom;verticalAlign=top;align=center;html=1;fontSize=12;fontStyle=0;aspect=fixed;pointerEvents=1;shape=mxgraph.aws4.application_load_balancer;" parent="_5oGrvyWEHOWmhBWFbZB-9" vertex="1">
          <mxGeometry x="530" y="130" width="40" height="40" as="geometry" />
        </mxCell>
        <mxCell id="_5oGrvyWEHOWmhBWFbZB-96" value="RDS Primary" style="outlineConnect=0;dashed=0;verticalLabelPosition=bottom;verticalAlign=top;align=center;html=1;shape=mxgraph.aws3.rds_db_instance;fillColor=#2E73B8;gradientColor=none;" parent="_5oGrvyWEHOWmhBWFbZB-9" vertex="1">
          <mxGeometry x="240" y="95" width="40" height="45" as="geometry" />
        </mxCell>
        <mxCell id="_5oGrvyWEHOWmhBWFbZB-97" value="RDS Read Replica" style="outlineConnect=0;dashed=0;verticalLabelPosition=bottom;verticalAlign=top;align=center;html=1;shape=mxgraph.aws3.rds_db_instance_read_replica;fillColor=#2E73B8;gradientColor=none;" parent="_5oGrvyWEHOWmhBWFbZB-9" vertex="1">
          <mxGeometry x="240" y="184.12" width="40" height="48.25" as="geometry" />
        </mxCell>
        <mxCell id="_5oGrvyWEHOWmhBWFbZB-10" value="Region 2" style="points=[[0,0],[0.25,0],[0.5,0],[0.75,0],[1,0],[1,0.25],[1,0.5],[1,0.75],[1,1],[0.75,1],[0.5,1],[0.25,1],[0,1],[0,0.75],[0,0.5],[0,0.25]];outlineConnect=0;gradientColor=none;html=1;whiteSpace=wrap;fontSize=12;fontStyle=0;container=1;pointerEvents=0;collapsible=0;recursiveResize=0;shape=mxgraph.aws4.group;grIcon=mxgraph.aws4.group_region;strokeColor=#00A4A6;fillColor=none;verticalAlign=top;align=left;spacingLeft=30;fontColor=#147EBA;dashed=1;" parent="1" vertex="1">
          <mxGeometry x="190" y="827.5" width="610" height="286.5" as="geometry" />
        </mxCell>
        <mxCell id="_5oGrvyWEHOWmhBWFbZB-20" value="Customer VPC" style="sketch=0;outlineConnect=0;html=1;whiteSpace=wrap;fontSize=12;fontStyle=0;shape=mxgraph.aws4.group;grIcon=mxgraph.aws4.group_vpc;strokeColor=#82b366;fillColor=none;verticalAlign=top;align=left;spacingLeft=30;dashed=0;" parent="_5oGrvyWEHOWmhBWFbZB-10" vertex="1">
          <mxGeometry x="150" y="38.25" width="350" height="221.75" as="geometry" />
        </mxCell>
        <mxCell id="_5oGrvyWEHOWmhBWFbZB-16" value="AWS VPC" style="sketch=0;outlineConnect=0;html=1;whiteSpace=wrap;fontSize=12;fontStyle=0;shape=mxgraph.aws4.group;grIcon=mxgraph.aws4.group_vpc;strokeColor=#82b366;fillColor=none;verticalAlign=top;align=left;spacingLeft=30;dashed=0;" parent="_5oGrvyWEHOWmhBWFbZB-10" vertex="1">
          <mxGeometry x="30" y="38.25" width="110" height="221.75" as="geometry" />
        </mxCell>
        <mxCell id="_5oGrvyWEHOWmhBWFbZB-17" value="" style="sketch=0;points=[[0,0,0],[0.25,0,0],[0.5,0,0],[0.75,0,0],[1,0,0],[0,1,0],[0.25,1,0],[0.5,1,0],[0.75,1,0],[1,1,0],[0,0.25,0],[0,0.5,0],[0,0.75,0],[1,0.25,0],[1,0.5,0],[1,0.75,0]];outlineConnect=0;fontColor=#232F3E;fillColor=#ED7100;strokeColor=#ffffff;dashed=0;verticalLabelPosition=bottom;verticalAlign=top;align=center;html=1;fontSize=12;fontStyle=0;aspect=fixed;shape=mxgraph.aws4.resourceIcon;resIcon=mxgraph.aws4.eks;" parent="_5oGrvyWEHOWmhBWFbZB-10" vertex="1">
          <mxGeometry x="65" y="119.12" width="40" height="40" as="geometry" />
        </mxCell>
        <mxCell id="_5oGrvyWEHOWmhBWFbZB-19" value="" style="sketch=0;outlineConnect=0;fontColor=#232F3E;gradientColor=none;fillColor=#8C4FFF;strokeColor=none;dashed=0;verticalLabelPosition=bottom;verticalAlign=top;align=center;html=1;fontSize=12;fontStyle=0;aspect=fixed;pointerEvents=1;shape=mxgraph.aws4.network_load_balancer;" parent="_5oGrvyWEHOWmhBWFbZB-10" vertex="1">
          <mxGeometry x="10" y="119.12" width="40" height="40" as="geometry" />
        </mxCell>
        <mxCell id="_5oGrvyWEHOWmhBWFbZB-26" value="Availability Zone" style="fillColor=none;strokeColor=#147EBA;dashed=1;verticalAlign=top;fontStyle=0;fontColor=#147EBA;whiteSpace=wrap;html=1;" parent="_5oGrvyWEHOWmhBWFbZB-10" vertex="1">
          <mxGeometry x="170" y="75.62" width="310" height="83.5" as="geometry" />
        </mxCell>
        <mxCell id="_5oGrvyWEHOWmhBWFbZB-27" value="Availability Zone" style="fillColor=none;strokeColor=#147EBA;dashed=1;verticalAlign=top;fontStyle=0;fontColor=#147EBA;whiteSpace=wrap;html=1;" parent="_5oGrvyWEHOWmhBWFbZB-10" vertex="1">
          <mxGeometry x="170" y="166.5" width="310" height="83.5" as="geometry" />
        </mxCell>
        <mxCell id="_5oGrvyWEHOWmhBWFbZB-42" style="edgeStyle=orthogonalEdgeStyle;rounded=0;orthogonalLoop=1;jettySize=auto;html=1;curved=1;fillColor=#fa6800;strokeColor=#C73500;" parent="_5oGrvyWEHOWmhBWFbZB-10" source="_5oGrvyWEHOWmhBWFbZB-29" target="_5oGrvyWEHOWmhBWFbZB-19" edge="1">
          <mxGeometry relative="1" as="geometry">
            <Array as="points">
              <mxPoint x="430" y="253" />
              <mxPoint x="30" y="253" />
            </Array>
          </mxGeometry>
        </mxCell>
        <mxCell id="_5oGrvyWEHOWmhBWFbZB-55" style="rounded=0;orthogonalLoop=1;jettySize=auto;html=1;fillColor=#d5e8d4;strokeColor=#82b366;startArrow=classic;startFill=1;" parent="_5oGrvyWEHOWmhBWFbZB-10" source="_5oGrvyWEHOWmhBWFbZB-29" target="_5oGrvyWEHOWmhBWFbZB-46" edge="1">
          <mxGeometry relative="1" as="geometry" />
        </mxCell>
        <mxCell id="_5oGrvyWEHOWmhBWFbZB-29" value="Node" style="sketch=0;points=[[0,0,0],[0.25,0,0],[0.5,0,0],[0.75,0,0],[1,0,0],[0,1,0],[0.25,1,0],[0.5,1,0],[0.75,1,0],[1,1,0],[0,0.25,0],[0,0.5,0],[0,0.75,0],[1,0.25,0],[1,0.5,0],[1,0.75,0]];outlineConnect=0;fontColor=#232F3E;fillColor=#ED7100;strokeColor=#ffffff;dashed=0;verticalLabelPosition=bottom;verticalAlign=top;align=center;html=1;fontSize=12;fontStyle=0;aspect=fixed;shape=mxgraph.aws4.resourceIcon;resIcon=mxgraph.aws4.ec2;" parent="_5oGrvyWEHOWmhBWFbZB-10" vertex="1">
          <mxGeometry x="410" y="188.25" width="40" height="40" as="geometry" />
        </mxCell>
        <mxCell id="_5oGrvyWEHOWmhBWFbZB-39" style="rounded=0;orthogonalLoop=1;jettySize=auto;html=1;startArrow=classic;startFill=1;fillColor=#fff2cc;strokeColor=#d6b656;gradientColor=#ffd966;" parent="_5oGrvyWEHOWmhBWFbZB-10" source="_5oGrvyWEHOWmhBWFbZB-37" target="_5oGrvyWEHOWmhBWFbZB-17" edge="1">
          <mxGeometry relative="1" as="geometry" />
        </mxCell>
        <mxCell id="_5oGrvyWEHOWmhBWFbZB-37" value="" style="sketch=0;outlineConnect=0;fontColor=#232F3E;gradientColor=none;fillColor=#8C4FFF;strokeColor=none;dashed=0;verticalLabelPosition=bottom;verticalAlign=top;align=center;html=1;fontSize=12;fontStyle=0;aspect=fixed;pointerEvents=1;shape=mxgraph.aws4.elastic_network_interface;" parent="_5oGrvyWEHOWmhBWFbZB-10" vertex="1">
          <mxGeometry x="180" y="97.37" width="40" height="40" as="geometry" />
        </mxCell>
        <mxCell id="_5oGrvyWEHOWmhBWFbZB-46" value="" style="sketch=0;outlineConnect=0;fontColor=#232F3E;gradientColor=none;fillColor=#8C4FFF;strokeColor=none;dashed=0;verticalLabelPosition=bottom;verticalAlign=top;align=center;html=1;fontSize=12;fontStyle=0;aspect=fixed;pointerEvents=1;shape=mxgraph.aws4.application_load_balancer;" parent="_5oGrvyWEHOWmhBWFbZB-10" vertex="1">
          <mxGeometry x="530" y="123.25" width="40" height="40" as="geometry" />
        </mxCell>
        <mxCell id="_5oGrvyWEHOWmhBWFbZB-23" value="&lt;b&gt;kubectl&lt;/b&gt;" style="rounded=0;orthogonalLoop=1;jettySize=auto;html=1;" parent="1" source="_5oGrvyWEHOWmhBWFbZB-22" target="_5oGrvyWEHOWmhBWFbZB-18" edge="1">
          <mxGeometry relative="1" as="geometry" />
        </mxCell>
        <mxCell id="_5oGrvyWEHOWmhBWFbZB-24" value="&lt;b&gt;kubectl&lt;/b&gt;" style="rounded=0;orthogonalLoop=1;jettySize=auto;html=1;" parent="1" source="_5oGrvyWEHOWmhBWFbZB-22" target="_5oGrvyWEHOWmhBWFbZB-19" edge="1">
          <mxGeometry relative="1" as="geometry" />
        </mxCell>
        <mxCell id="_5oGrvyWEHOWmhBWFbZB-22" value="" style="sketch=0;outlineConnect=0;fontColor=#232F3E;gradientColor=none;fillColor=#232F3D;strokeColor=none;dashed=0;verticalLabelPosition=bottom;verticalAlign=top;align=center;html=1;fontSize=12;fontStyle=0;aspect=fixed;pointerEvents=1;shape=mxgraph.aws4.users;" parent="1" vertex="1">
          <mxGeometry x="92" y="789" width="40" height="40" as="geometry" />
        </mxCell>
        <mxCell id="_5oGrvyWEHOWmhBWFbZB-52" style="rounded=0;orthogonalLoop=1;jettySize=auto;html=1;fillColor=#d5e8d4;strokeColor=#82b366;startArrow=classic;startFill=1;" parent="1" source="_5oGrvyWEHOWmhBWFbZB-47" target="_5oGrvyWEHOWmhBWFbZB-45" edge="1">
          <mxGeometry relative="1" as="geometry" />
        </mxCell>
        <mxCell id="_5oGrvyWEHOWmhBWFbZB-53" style="rounded=0;orthogonalLoop=1;jettySize=auto;html=1;startArrow=classic;startFill=1;fillColor=#d5e8d4;strokeColor=#82b366;" parent="1" source="_5oGrvyWEHOWmhBWFbZB-47" target="_5oGrvyWEHOWmhBWFbZB-46" edge="1">
          <mxGeometry relative="1" as="geometry" />
        </mxCell>
        <mxCell id="_5oGrvyWEHOWmhBWFbZB-51" style="edgeStyle=orthogonalEdgeStyle;rounded=0;orthogonalLoop=1;jettySize=auto;html=1;fillColor=#d5e8d4;strokeColor=#82b366;startArrow=classic;startFill=1;" parent="1" source="_5oGrvyWEHOWmhBWFbZB-50" target="_5oGrvyWEHOWmhBWFbZB-48" edge="1">
          <mxGeometry relative="1" as="geometry" />
        </mxCell>
        <mxCell id="_5oGrvyWEHOWmhBWFbZB-50" value="" style="sketch=0;outlineConnect=0;fontColor=#232F3E;gradientColor=none;fillColor=#232F3D;strokeColor=none;dashed=0;verticalLabelPosition=bottom;verticalAlign=top;align=center;html=1;fontSize=12;fontStyle=0;aspect=fixed;pointerEvents=1;shape=mxgraph.aws4.users;" parent="1" vertex="1">
          <mxGeometry x="1180" y="799" width="40" height="40" as="geometry" />
        </mxCell>
        <mxCell id="_5oGrvyWEHOWmhBWFbZB-69" value="AWS Cloud" style="points=[[0,0],[0.25,0],[0.5,0],[0.75,0],[1,0],[1,0.25],[1,0.5],[1,0.75],[1,1],[0.75,1],[0.5,1],[0.25,1],[0,1],[0,0.75],[0,0.5],[0,0.25]];outlineConnect=0;gradientColor=none;html=1;whiteSpace=wrap;fontSize=12;fontStyle=0;container=1;pointerEvents=0;collapsible=0;recursiveResize=0;shape=mxgraph.aws4.group;grIcon=mxgraph.aws4.group_aws_cloud_alt;strokeColor=#232F3E;fillColor=none;verticalAlign=top;align=left;spacingLeft=30;fontColor=#232F3E;dashed=0;" parent="1" vertex="1">
          <mxGeometry x="170" y="414" width="840" height="930" as="geometry" />
        </mxCell>
        <mxCell id="_5oGrvyWEHOWmhBWFbZB-71" value="" style="swimlane;startSize=0;dashed=1;strokeWidth=2;" parent="_5oGrvyWEHOWmhBWFbZB-69" vertex="1">
          <mxGeometry x="20" y="24" width="510" height="86" as="geometry" />
        </mxCell>
        <mxCell id="_5oGrvyWEHOWmhBWFbZB-68" value="KMS" style="outlineConnect=0;dashed=0;verticalLabelPosition=bottom;verticalAlign=top;align=center;html=1;shape=mxgraph.aws3.kms;fillColor=#759C3E;gradientColor=none;" parent="_5oGrvyWEHOWmhBWFbZB-71" vertex="1">
          <mxGeometry x="20" y="20" width="40" height="40" as="geometry" />
        </mxCell>
        <mxCell id="_5oGrvyWEHOWmhBWFbZB-72" value="IAM Role" style="sketch=0;outlineConnect=0;fontColor=#232F3E;gradientColor=none;fillColor=#DD344C;strokeColor=none;dashed=0;verticalLabelPosition=bottom;verticalAlign=top;align=center;html=1;fontSize=12;fontStyle=0;aspect=fixed;pointerEvents=1;shape=mxgraph.aws4.role;" parent="_5oGrvyWEHOWmhBWFbZB-71" vertex="1">
          <mxGeometry x="90" y="29.5" width="40" height="22.56" as="geometry" />
        </mxCell>
        <mxCell id="_5oGrvyWEHOWmhBWFbZB-73" value="ECR" style="outlineConnect=0;dashed=0;verticalLabelPosition=bottom;verticalAlign=top;align=center;html=1;shape=mxgraph.aws3.ecr;fillColor=#F58534;gradientColor=none;" parent="_5oGrvyWEHOWmhBWFbZB-71" vertex="1">
          <mxGeometry x="160" y="23" width="40" height="40" as="geometry" />
        </mxCell>
        <mxCell id="_5oGrvyWEHOWmhBWFbZB-93" value="Redis ElastiCache" style="sketch=0;outlineConnect=0;fontColor=#232F3E;gradientColor=none;fillColor=#C925D1;strokeColor=none;dashed=0;verticalLabelPosition=bottom;verticalAlign=top;align=center;html=1;fontSize=12;fontStyle=0;aspect=fixed;pointerEvents=1;shape=mxgraph.aws4.elasticache_for_redis;" parent="_5oGrvyWEHOWmhBWFbZB-71" vertex="1">
          <mxGeometry x="240" y="25.31" width="40" height="35.38" as="geometry" />
        </mxCell>
        <mxCell id="_5oGrvyWEHOWmhBWFbZB-102" value="SQS" style="sketch=0;points=[[0,0,0],[0.25,0,0],[0.5,0,0],[0.75,0,0],[1,0,0],[0,1,0],[0.25,1,0],[0.5,1,0],[0.75,1,0],[1,1,0],[0,0.25,0],[0,0.5,0],[0,0.75,0],[1,0.25,0],[1,0.5,0],[1,0.75,0]];outlineConnect=0;fontColor=#232F3E;fillColor=#E7157B;strokeColor=#ffffff;dashed=0;verticalLabelPosition=bottom;verticalAlign=top;align=center;html=1;fontSize=12;fontStyle=0;aspect=fixed;shape=mxgraph.aws4.resourceIcon;resIcon=mxgraph.aws4.sqs;" parent="_5oGrvyWEHOWmhBWFbZB-71" vertex="1">
          <mxGeometry x="320" y="23" width="40" height="40" as="geometry" />
        </mxCell>
        <mxCell id="_5oGrvyWEHOWmhBWFbZB-103" value="ACM" style="sketch=0;points=[[0,0,0],[0.25,0,0],[0.5,0,0],[0.75,0,0],[1,0,0],[0,1,0],[0.25,1,0],[0.5,1,0],[0.75,1,0],[1,1,0],[0,0.25,0],[0,0.5,0],[0,0.75,0],[1,0.25,0],[1,0.5,0],[1,0.75,0]];outlineConnect=0;fontColor=#232F3E;fillColor=#DD344C;strokeColor=#ffffff;dashed=0;verticalLabelPosition=bottom;verticalAlign=top;align=center;html=1;fontSize=12;fontStyle=0;aspect=fixed;shape=mxgraph.aws4.resourceIcon;resIcon=mxgraph.aws4.certificate_manager_3;" parent="_5oGrvyWEHOWmhBWFbZB-71" vertex="1">
          <mxGeometry x="395" y="23" width="40" height="40" as="geometry" />
        </mxCell>
        <mxCell id="_5oGrvyWEHOWmhBWFbZB-59" value="EKS" style="points=[[0,0],[0.25,0],[0.5,0],[0.75,0],[1,0],[1,0.25],[1,0.5],[1,0.75],[1,1],[0.75,1],[0.5,1],[0.25,1],[0,1],[0,0.75],[0,0.5],[0,0.25]];outlineConnect=0;gradientColor=none;html=1;whiteSpace=wrap;fontSize=12;fontStyle=0;container=1;pointerEvents=0;collapsible=0;recursiveResize=0;shape=mxgraph.aws4.group;grIcon=mxgraph.aws4.group_ec2_instance_contents;strokeColor=#D86613;fillColor=none;verticalAlign=top;align=left;spacingLeft=30;fontColor=#D86613;dashed=0;" parent="_5oGrvyWEHOWmhBWFbZB-69" vertex="1">
          <mxGeometry x="20" y="720" width="630" height="195" as="geometry" />
        </mxCell>
        <mxCell id="_5oGrvyWEHOWmhBWFbZB-74" value="CI/CD" style="swimlane;whiteSpace=wrap;html=1;" parent="_5oGrvyWEHOWmhBWFbZB-59" vertex="1">
          <mxGeometry x="7.5" y="40" width="172.5" height="120" as="geometry" />
        </mxCell>
        <mxCell id="_5oGrvyWEHOWmhBWFbZB-75" value="GitLab CI" style="shape=rect;fillColor=#EE5396;aspect=fixed;resizable=0;labelPosition=center;verticalLabelPosition=bottom;align=center;verticalAlign=top;strokeColor=none;fontSize=14;" parent="_5oGrvyWEHOWmhBWFbZB-74" vertex="1">
          <mxGeometry x="20" y="43" width="48" height="48" as="geometry" />
        </mxCell>
        <mxCell id="_5oGrvyWEHOWmhBWFbZB-76" value="" style="fillColor=#ffffff;strokeColor=none;dashed=0;outlineConnect=0;html=1;labelPosition=center;verticalLabelPosition=bottom;verticalAlign=top;part=1;movable=0;resizable=0;rotatable=0;shape=mxgraph.ibm_cloud.logo--gitlab" parent="_5oGrvyWEHOWmhBWFbZB-75" vertex="1">
          <mxGeometry width="24" height="24" relative="1" as="geometry">
            <mxPoint x="12" y="12" as="offset" />
          </mxGeometry>
        </mxCell>
        <mxCell id="_5oGrvyWEHOWmhBWFbZB-81" value="ArgoCD" style="shape=image;verticalLabelPosition=bottom;labelBackgroundColor=default;verticalAlign=top;aspect=fixed;imageAspect=0;image=https://argo-cd.readthedocs.io/en/stable/assets/logo.png;" parent="_5oGrvyWEHOWmhBWFbZB-74" vertex="1">
          <mxGeometry x="95" y="38.5" width="57" height="57" as="geometry" />
        </mxCell>
        <mxCell id="_5oGrvyWEHOWmhBWFbZB-82" value="" style="aspect=fixed;sketch=0;html=1;dashed=0;whitespace=wrap;verticalLabelPosition=bottom;verticalAlign=top;fillColor=#2875E2;strokeColor=#ffffff;points=[[0.005,0.63,0],[0.1,0.2,0],[0.9,0.2,0],[0.5,0,0],[0.995,0.63,0],[0.72,0.99,0],[0.5,1,0],[0.28,0.99,0]];shape=mxgraph.kubernetes.icon2;prIcon=hpa" parent="_5oGrvyWEHOWmhBWFbZB-74" vertex="1">
          <mxGeometry x="122.5" y="-20" width="50" height="48" as="geometry" />
        </mxCell>
        <mxCell id="_5oGrvyWEHOWmhBWFbZB-64" value="Monitoring" style="swimlane;whiteSpace=wrap;html=1;" parent="_5oGrvyWEHOWmhBWFbZB-59" vertex="1">
          <mxGeometry x="190" y="40" width="290" height="125" as="geometry" />
        </mxCell>
        <mxCell id="_5oGrvyWEHOWmhBWFbZB-61" value="Prometheus" style="points=[];aspect=fixed;html=1;align=center;shadow=0;dashed=0;fillColor=#FF6A00;strokeColor=none;shape=mxgraph.alibaba_cloud.prometheus;verticalAlign=top;labelPosition=center;verticalLabelPosition=bottom;" parent="_5oGrvyWEHOWmhBWFbZB-64" vertex="1">
          <mxGeometry x="20" y="42.99999999999994" width="40" height="40" as="geometry" />
        </mxCell>
        <mxCell id="_5oGrvyWEHOWmhBWFbZB-65" value="Grafana" style="sketch=0;points=[[0,0,0],[0.25,0,0],[0.5,0,0],[0.75,0,0],[1,0,0],[0,1,0],[0.25,1,0],[0.5,1,0],[0.75,1,0],[1,1,0],[0,0.25,0],[0,0.5,0],[0,0.75,0],[1,0.25,0],[1,0.5,0],[1,0.75,0]];points=[[0,0,0],[0.25,0,0],[0.5,0,0],[0.75,0,0],[1,0,0],[0,1,0],[0.25,1,0],[0.5,1,0],[0.75,1,0],[1,1,0],[0,0.25,0],[0,0.5,0],[0,0.75,0],[1,0.25,0],[1,0.5,0],[1,0.75,0]];outlineConnect=0;fontColor=#232F3E;fillColor=#E7157B;strokeColor=#ffffff;dashed=0;verticalLabelPosition=bottom;verticalAlign=top;align=center;html=1;fontSize=12;fontStyle=0;aspect=fixed;shape=mxgraph.aws4.resourceIcon;resIcon=mxgraph.aws4.managed_service_for_grafana;" parent="_5oGrvyWEHOWmhBWFbZB-64" vertex="1">
          <mxGeometry x="100" y="43.00000000000004" width="40" height="40" as="geometry" />
        </mxCell>
        <mxCell id="_5oGrvyWEHOWmhBWFbZB-66" value="Loki" style="shape=image;verticalLabelPosition=bottom;labelBackgroundColor=default;verticalAlign=top;aspect=fixed;imageAspect=0;image=https://grafana.com/static/img/logos/logo-loki.svg;" parent="_5oGrvyWEHOWmhBWFbZB-64" vertex="1">
          <mxGeometry x="185" y="39.169999999999995" width="40" height="46.67" as="geometry" />
        </mxCell>
        <mxCell id="_5oGrvyWEHOWmhBWFbZB-63" value="Kube-system" style="swimlane;whiteSpace=wrap;html=1;" parent="_5oGrvyWEHOWmhBWFbZB-59" vertex="1">
          <mxGeometry x="490" y="40" width="112.5" height="125" as="geometry" />
        </mxCell>
        <mxCell id="_5oGrvyWEHOWmhBWFbZB-60" value="Metric Server" style="sketch=0;points=[[0,0,0],[0.25,0,0],[0.5,0,0],[0.75,0,0],[1,0,0],[0,1,0],[0.25,1,0],[0.5,1,0],[0.75,1,0],[1,1,0],[0,0.25,0],[0,0.5,0],[0,0.75,0],[1,0.25,0],[1,0.5,0],[1,0.75,0]];outlineConnect=0;fontColor=#232F3E;fillColor=#ED7100;strokeColor=#ffffff;dashed=0;verticalLabelPosition=bottom;verticalAlign=top;align=center;html=1;fontSize=12;fontStyle=0;aspect=fixed;shape=mxgraph.aws4.resourceIcon;resIcon=mxgraph.aws4.containers;" parent="_5oGrvyWEHOWmhBWFbZB-63" vertex="1">
          <mxGeometry x="36.25" y="37.5" width="40" height="40" as="geometry" />
        </mxCell>
        <mxCell id="_5oGrvyWEHOWmhBWFbZB-62" value="" style="aspect=fixed;sketch=0;html=1;dashed=0;whitespace=wrap;verticalLabelPosition=bottom;verticalAlign=top;fillColor=#2875E2;strokeColor=#ffffff;points=[[0.005,0.63,0],[0.1,0.2,0],[0.9,0.2,0],[0.5,0,0],[0.995,0.63,0],[0.72,0.99,0],[0.5,1,0],[0.28,0.99,0]];shape=mxgraph.kubernetes.icon2;prIcon=hpa" parent="_5oGrvyWEHOWmhBWFbZB-59" vertex="1">
          <mxGeometry x="430" y="10" width="50" height="48" as="geometry" />
        </mxCell>
        <mxCell id="_5oGrvyWEHOWmhBWFbZB-34" value="Node" style="sketch=0;points=[[0,0,0],[0.25,0,0],[0.5,0,0],[0.75,0,0],[1,0,0],[0,1,0],[0.25,1,0],[0.5,1,0],[0.75,1,0],[1,1,0],[0,0.25,0],[0,0.5,0],[0,0.75,0],[1,0.25,0],[1,0.5,0],[1,0.75,0]];outlineConnect=0;fontColor=#232F3E;fillColor=#ED7100;strokeColor=#ffffff;dashed=0;verticalLabelPosition=bottom;verticalAlign=top;align=center;html=1;fontSize=12;fontStyle=0;aspect=fixed;shape=mxgraph.aws4.resourceIcon;resIcon=mxgraph.aws4.ec2;" parent="_5oGrvyWEHOWmhBWFbZB-69" vertex="1">
          <mxGeometry x="450" y="308.25" width="40" height="40" as="geometry" />
        </mxCell>
        <mxCell id="_5oGrvyWEHOWmhBWFbZB-28" value="Node" style="sketch=0;points=[[0,0,0],[0.25,0,0],[0.5,0,0],[0.75,0,0],[1,0,0],[0,1,0],[0.25,1,0],[0.5,1,0],[0.75,1,0],[1,1,0],[0,0.25,0],[0,0.5,0],[0,0.75,0],[1,0.25,0],[1,0.5,0],[1,0.75,0]];outlineConnect=0;fontColor=#232F3E;fillColor=#ED7100;strokeColor=#ffffff;dashed=0;verticalLabelPosition=bottom;verticalAlign=top;align=center;html=1;fontSize=12;fontStyle=0;aspect=fixed;shape=mxgraph.aws4.resourceIcon;resIcon=mxgraph.aws4.ec2;" parent="_5oGrvyWEHOWmhBWFbZB-69" vertex="1">
          <mxGeometry x="430" y="510.87" width="40" height="40" as="geometry" />
        </mxCell>
        <mxCell id="_5oGrvyWEHOWmhBWFbZB-99" value="RDS Standby" style="outlineConnect=0;dashed=0;verticalLabelPosition=bottom;verticalAlign=top;align=center;html=1;shape=mxgraph.aws3.rds_db_instance_standby_multi_az;fillColor=#2E73B8;gradientColor=none;" parent="_5oGrvyWEHOWmhBWFbZB-69" vertex="1">
          <mxGeometry x="260" y="506.74" width="40" height="48.25" as="geometry" />
        </mxCell>
        <mxCell id="_5oGrvyWEHOWmhBWFbZB-47" value="" style="sketch=0;points=[[0,0,0],[0.25,0,0],[0.5,0,0],[0.75,0,0],[1,0,0],[0,1,0],[0.25,1,0],[0.5,1,0],[0.75,1,0],[1,1,0],[0,0.25,0],[0,0.5,0],[0,0.75,0],[1,0.25,0],[1,0.5,0],[1,0.75,0]];outlineConnect=0;fontColor=#232F3E;fillColor=#8C4FFF;strokeColor=#ffffff;dashed=0;verticalLabelPosition=bottom;verticalAlign=top;align=center;html=1;fontSize=12;fontStyle=0;aspect=fixed;shape=mxgraph.aws4.resourceIcon;resIcon=mxgraph.aws4.global_accelerator;" parent="_5oGrvyWEHOWmhBWFbZB-69" vertex="1">
          <mxGeometry x="650" y="375" width="60" height="60" as="geometry" />
        </mxCell>
        <mxCell id="_5oGrvyWEHOWmhBWFbZB-48" value="" style="sketch=0;points=[[0,0,0],[0.25,0,0],[0.5,0,0],[0.75,0,0],[1,0,0],[0,1,0],[0.25,1,0],[0.5,1,0],[0.75,1,0],[1,1,0],[0,0.25,0],[0,0.5,0],[0,0.75,0],[1,0.25,0],[1,0.5,0],[1,0.75,0]];outlineConnect=0;fontColor=#232F3E;fillColor=#8C4FFF;strokeColor=#ffffff;dashed=0;verticalLabelPosition=bottom;verticalAlign=top;align=center;html=1;fontSize=12;fontStyle=0;aspect=fixed;shape=mxgraph.aws4.resourceIcon;resIcon=mxgraph.aws4.route_53;" parent="_5oGrvyWEHOWmhBWFbZB-69" vertex="1">
          <mxGeometry x="760" y="375" width="60" height="60" as="geometry" />
        </mxCell>
        <mxCell id="_5oGrvyWEHOWmhBWFbZB-49" style="edgeStyle=orthogonalEdgeStyle;rounded=0;orthogonalLoop=1;jettySize=auto;html=1;fillColor=#d5e8d4;strokeColor=#82b366;startArrow=classic;startFill=1;" parent="_5oGrvyWEHOWmhBWFbZB-69" source="_5oGrvyWEHOWmhBWFbZB-48" target="_5oGrvyWEHOWmhBWFbZB-47" edge="1">
          <mxGeometry relative="1" as="geometry" />
        </mxCell>
        <mxCell id="_5oGrvyWEHOWmhBWFbZB-70" value="Notifications and Alerts" style="swimlane;whiteSpace=wrap;html=1;" parent="1" vertex="1">
          <mxGeometry x="20" y="1174" width="140" height="170" as="geometry" />
        </mxCell>
        <mxCell id="_5oGrvyWEHOWmhBWFbZB-67" value="Teams" style="sketch=0;pointerEvents=1;shadow=0;dashed=0;html=1;strokeColor=none;fillColor=#DF8C42;labelPosition=center;verticalLabelPosition=bottom;verticalAlign=top;align=center;outlineConnect=0;shape=mxgraph.veeam2.microsoft_teams;" parent="_5oGrvyWEHOWmhBWFbZB-70" vertex="1">
          <mxGeometry x="50" y="27" width="40" height="40" as="geometry" />
        </mxCell>
        <mxCell id="_5oGrvyWEHOWmhBWFbZB-90" value="Slack" style="shape=image;verticalLabelPosition=bottom;labelBackgroundColor=default;verticalAlign=top;aspect=fixed;imageAspect=0;image=https://cdn4.iconfinder.com/data/icons/logos-and-brands/512/306_Slack_logo-512.png;" parent="_5oGrvyWEHOWmhBWFbZB-70" vertex="1">
          <mxGeometry x="50" y="100" width="40" height="40" as="geometry" />
        </mxCell>
        <mxCell id="_5oGrvyWEHOWmhBWFbZB-92" style="edgeStyle=orthogonalEdgeStyle;rounded=0;orthogonalLoop=1;jettySize=auto;html=1;curved=1;fillColor=#f8cecc;strokeColor=#b85450;" parent="1" source="_5oGrvyWEHOWmhBWFbZB-61" target="_5oGrvyWEHOWmhBWFbZB-70" edge="1">
          <mxGeometry relative="1" as="geometry">
            <Array as="points">
              <mxPoint x="420" y="1374" />
              <mxPoint x="90" y="1374" />
            </Array>
          </mxGeometry>
        </mxCell>
        <mxCell id="_5oGrvyWEHOWmhBWFbZB-44" style="edgeStyle=orthogonalEdgeStyle;rounded=0;orthogonalLoop=1;jettySize=auto;html=1;curved=1;fillColor=#fa6800;strokeColor=#C73500;" parent="1" source="_5oGrvyWEHOWmhBWFbZB-34" target="_5oGrvyWEHOWmhBWFbZB-18" edge="1">
          <mxGeometry relative="1" as="geometry">
            <Array as="points">
              <mxPoint x="640" y="784" />
              <mxPoint x="220" y="784" />
            </Array>
          </mxGeometry>
        </mxCell>
        <mxCell id="_5oGrvyWEHOWmhBWFbZB-58" style="rounded=0;orthogonalLoop=1;jettySize=auto;html=1;startArrow=classic;startFill=1;fillColor=#d5e8d4;strokeColor=#82b366;" parent="1" source="_5oGrvyWEHOWmhBWFbZB-34" target="_5oGrvyWEHOWmhBWFbZB-45" edge="1">
          <mxGeometry relative="1" as="geometry" />
        </mxCell>
        <mxCell id="_5oGrvyWEHOWmhBWFbZB-41" style="edgeStyle=orthogonalEdgeStyle;rounded=0;orthogonalLoop=1;jettySize=auto;html=1;curved=1;fillColor=#fa6800;strokeColor=#C73500;" parent="1" source="_5oGrvyWEHOWmhBWFbZB-28" target="_5oGrvyWEHOWmhBWFbZB-19" edge="1">
          <mxGeometry relative="1" as="geometry">
            <Array as="points">
              <mxPoint x="620" y="890" />
              <mxPoint x="220" y="890" />
            </Array>
          </mxGeometry>
        </mxCell>
        <mxCell id="_5oGrvyWEHOWmhBWFbZB-54" style="rounded=0;orthogonalLoop=1;jettySize=auto;html=1;fillColor=#d5e8d4;strokeColor=#82b366;startArrow=classic;startFill=1;" parent="1" source="_5oGrvyWEHOWmhBWFbZB-46" target="_5oGrvyWEHOWmhBWFbZB-28" edge="1">
          <mxGeometry relative="1" as="geometry" />
        </mxCell>
        <mxCell id="_5oGrvyWEHOWmhBWFbZB-101" value="High Availability Solution" style="text;strokeColor=none;fillColor=none;html=1;fontSize=24;fontStyle=1;verticalAlign=middle;align=center;" parent="1" vertex="1">
          <mxGeometry x="435" y="340" width="300" height="40" as="geometry" />
        </mxCell>
      </root>
    </mxGraphModel>
  </diagram>
</mxfile>
